<svg width="512" height="512" viewBox="0 0 512 512" fill="none" xmlns="http://www.w3.org/2000/svg">
  <defs>
    <linearGradient id="bg" x1="72" y1="56" x2="448" y2="456" gradientUnits="userSpaceOnUse">
      <stop stop-color="#F7924A"/>
      <stop offset="1" stop-color="#D8572A"/>
    </linearGradient>
    <linearGradient id="sweep" x1="132" y1="332" x2="378" y2="152" gradientUnits="userSpaceOnUse">
      <stop stop-color="#0F8A89"/>
      <stop offset="1" stop-color="#42C5B9"/>
    </linearGradient>
  </defs>

  <rect x="40" y="40" width="432" height="432" rx="112" fill="url(#bg)"/>
  <rect x="92" y="102" width="328" height="308" rx="52" transform="rotate(-5 92 102)" fill="#FFF4E9"/>

  <rect x="140" y="186" width="180" height="24" rx="12" transform="rotate(-5 140 186)" fill="#E69A73" fill-opacity="0.92"/>
  <rect x="164" y="234" width="214" height="24" rx="12" transform="rotate(-5 164 234)" fill="#E69A73" fill-opacity="0.78"/>
  <rect x="142" y="282" width="142" height="24" rx="12" transform="rotate(-5 142 282)" fill="#E69A73" fill-opacity="0.58"/>

  <rect x="124" y="304" width="278" height="54" rx="27" transform="rotate(-32 124 304)" fill="#114B4A" fill-opacity="0.18"/>
  <rect x="116" y="292" width="278" height="54" rx="27" transform="rotate(-32 116 292)" fill="url(#sweep)"/>

  <path d="M349.888 149.197C355.306 140.519 367.998 139.684 374.509 147.578L382.802 157.629C388.875 164.992 386.181 176.023 377.347 179.847L353.041 190.37L334.457 167.835L349.888 149.197Z" fill="#114B4A"/>
  <path d="M358 132L366.4 145.6L380 154L366.4 162.4L358 176L349.6 162.4L336 154L349.6 145.6L358 132Z" fill="#FFF4E9"/>
  <path d="M146 126L151.2 135.8L161 141L151.2 146.2L146 156L140.8 146.2L131 141L140.8 135.8L146 126Z" fill="#FFF4E9" fill-opacity="0.95"/>
  <circle cx="386" cy="238" r="10" fill="#FFF4E9" fill-opacity="0.82"/>
</svg>
